<?xml version="1.0" encoding="UTF-8" standalone="no"?><!DOCTYPE svg PUBLIC "-//W3C//DTD SVG 1.1//EN" "http://www.w3.org/Graphics/SVG/1.1/DTD/svg11.dtd"><svg width="100%" height="100%" viewBox="0 0 190 163" version="1.1" xmlns="http://www.w3.org/2000/svg" xmlns:xlink="http://www.w3.org/1999/xlink" xml:space="preserve" xmlns:serif="http://www.serif.com/" style="fill-rule:evenodd;clip-rule:evenodd;stroke-linejoin:round;stroke-miterlimit:1.41421;"><g><path d="M93.328,8.778c0.147,0.435 0.556,0.727 1.015,0.725c0.459,-0.002 0.865,-0.297 1.009,-0.733c0.711,-2.156 1.645,-4.987 2.257,-6.841c0.169,-0.511 0.534,-0.935 1.015,-1.178c0.481,-0.242 1.039,-0.283 1.551,-0.115c2.729,0.901 7.688,2.537 10.417,3.437c0.511,0.169 0.935,0.534 1.177,1.015c0.243,0.481 0.284,1.039 0.115,1.551c-2.225,6.744 -9.522,28.864 -9.522,28.864c0,0 32.82,97.672 38.916,115.814c0.224,0.667 0.113,1.401 -0.298,1.972c-0.41,0.571 -1.07,0.909 -1.774,0.909c-4.449,0 -12.575,0 -15.984,0c-0.939,0 -1.774,-0.6 -2.072,-1.49c-0.142,-0.422 -0.295,-0.88 -0.437,-1.302c-0.298,-0.89 -1.132,-1.49 -2.071,-1.49c-7.988,-0.001 -44.018,-0.004 -52.028,-0.005c-0.944,0 -1.781,0.606 -2.076,1.502c-0.137,0.416 -0.286,0.868 -0.423,1.284c-0.295,0.896 -1.132,1.501 -2.075,1.501c-2.723,0 -8.342,0 -11.838,0c-0.701,0 -1.36,-0.337 -1.771,-0.906c-0.411,-0.569 -0.523,-1.3 -0.303,-1.967c5.817,-17.537 36.29,-109.412 36.29,-109.412c0,0 -6.581,-19.468 -8.702,-25.744c-0.173,-0.51 -0.135,-1.068 0.104,-1.551c0.239,-0.483 0.659,-0.851 1.17,-1.024c3.996,-1.35 13.024,-4.403 15.491,-5.236c0.168,-0.057 0.351,-0.045 0.51,0.034c0.159,0.078 0.28,0.217 0.337,0.385c0,0 0,0 0,0.001Zm-0.936,56.945l-2.494,7.443c0,0 -7.816,23.921 -14.007,42.866c-1.724,5.275 -0.816,11.057 2.442,15.55c3.258,4.493 8.472,7.154 14.022,7.155c0.001,0 0.002,0 0.003,0c5.552,0.001 10.768,-2.659 14.028,-7.153c3.26,-4.494 4.169,-10.278 2.445,-15.555c-7.004,-21.434 -16.439,-50.306 -16.439,-50.306Z" style="fill:#234;fill-rule:nonzero;"/><g><path d="M13.106,158.604l0.08,0.007l0.079,0.01l0.079,0.015l0.077,0.019l0.077,0.023l0.075,0.027l0.073,0.031l0.072,0.035l0.07,0.039l0.068,0.042l0.065,0.046l0.063,0.049l0.06,0.053l0.057,0.056l0.054,0.058l0.051,0.062l0.048,0.064l0.044,0.067l0.041,0.068l0.037,0.071l0.033,0.073l0.029,0.074l0.025,0.076l0.021,0.077l0.017,0.078l0.012,0.079l0.009,0.08l0.004,0.079l0,0.08l-0.004,0.08l-0.009,0.079l-0.012,0.079l-0.017,0.078l-0.021,0.077l-0.025,0.076l-0.029,0.074l-0.033,0.073l-0.037,0.071l-0.041,0.069l-0.044,0.066l-0.048,0.065l-0.051,0.061l-0.054,0.059l-0.057,0.055l-0.06,0.053l-0.063,0.049l-0.065,0.046l-0.068,0.043l-0.07,0.038l-0.072,0.035l-0.073,0.031l-0.075,0.027l-0.077,0.023l-0.077,0.019l-0.079,0.015l-0.079,0.011l-0.08,0.006l-0.079,0.002l-10.906,0l-0.079,-0.002l-0.08,-0.006l-0.079,-0.011l-0.079,-0.015l-0.077,-0.019l-0.077,-0.023l-0.075,-0.027l-0.073,-0.031l-0.072,-0.035l-0.07,-0.038l-0.068,-0.043l-0.065,-0.046l-0.063,-0.049l-0.06,-0.053l-0.057,-0.055l-0.054,-0.059l-0.051,-0.061l-0.048,-0.065l-0.044,-0.066l-0.041,-0.069l-0.037,-0.071l-0.033,-0.073l-0.029,-0.074l-0.025,-0.076l-0.021,-0.077l-0.017,-0.078l-0.012,-0.079l-0.009,-0.079l-0.004,-0.08l0,-0.08l0.004,-0.079l0.009,-0.08l0.012,-0.079l0.017,-0.078l0.021,-0.077l0.025,-0.076l0.029,-0.074l0.033,-0.073l0.037,-0.071l0.041,-0.068l0.044,-0.067l0.048,-0.064l0.051,-0.062l0.054,-0.058l0.057,-0.056l0.06,-0.053l0.063,-0.049l0.065,-0.046l0.068,-0.042l0.07,-0.039l0.072,-0.035l0.073,-0.031l0.075,-0.027l0.077,-0.023l0.077,-0.019l0.079,-0.015l0.079,-0.01l0.08,-0.007l0.079,-0.002l10.906,0l0.079,0.002Z" style="fill:#234;"/><path d="M114.962,158.619l0.218,0.05l0.209,0.082l0.194,0.112l0.176,0.14l0.152,0.164l0.126,0.185l0.098,0.202l0.066,0.214l0.033,0.222l0,0.224l-0.033,0.222l-0.066,0.214l-0.098,0.202l-0.126,0.185l-0.152,0.165l-0.176,0.14l-0.194,0.112l-0.209,0.082l-0.218,0.05l-0.224,0.016l-89.967,0l-0.224,-0.016l-0.219,-0.05l-0.208,-0.082l-0.194,-0.112l-0.176,-0.14l-0.152,-0.165l-0.127,-0.185l-0.097,-0.202l-0.066,-0.214l-0.033,-0.222l0,-0.224l0.033,-0.222l0.066,-0.214l0.097,-0.202l0.127,-0.185l0.152,-0.164l0.176,-0.14l0.194,-0.112l0.208,-0.082l0.219,-0.05l0.224,-0.017l89.967,0l0.224,0.017Z" style="fill:#234;"/><path d="M176.563,158.612l0.165,0.028l0.162,0.046l0.155,0.065l0.148,0.081l0.137,0.098l0.125,0.112l0.112,0.125l0.098,0.137l0.081,0.147l0.064,0.156l0.047,0.161l0.028,0.166l0.01,0.168l-0.01,0.168l-0.028,0.166l-0.047,0.162l-0.064,0.155l-0.081,0.147l-0.098,0.137l-0.112,0.126l-0.125,0.112l-0.137,0.097l-0.148,0.082l-0.155,0.064l-0.162,0.047l-0.165,0.028l-0.168,0.009l-47.815,0l-0.168,-0.009l-0.166,-0.028l-0.162,-0.047l-0.155,-0.064l-0.148,-0.082l-0.137,-0.097l-0.125,-0.112l-0.112,-0.126l-0.098,-0.137l-0.081,-0.147l-0.064,-0.155l-0.047,-0.162l-0.028,-0.166l-0.009,-0.168l0.009,-0.168l0.028,-0.166l0.047,-0.161l0.064,-0.156l0.081,-0.147l0.098,-0.137l0.112,-0.125l0.125,-0.112l0.137,-0.098l0.148,-0.081l0.155,-0.065l0.162,-0.046l0.166,-0.028l0.168,-0.01l47.815,0l0.168,0.01Z" style="fill:#234;"/><path d="M187.333,158.603l0.034,0.001l0.033,0.002l0.033,0.002l0.034,0.004l0.033,0.004l0.033,0.004l0.033,0.006l0.033,0.006l0.032,0.007l0.033,0.008l0.032,0.009l0.032,0.009l0.032,0.01l0.032,0.01l0.031,0.012l0.031,0.012l0.031,0.012l0.031,0.014l0.03,0.014l0.03,0.014l0.03,0.016l0.029,0.016l0.029,0.017l0.029,0.017l0.028,0.018l0.028,0.019l0.027,0.019l0.027,0.02l0.026,0.02l0.026,0.021l0.026,0.022l0.025,0.022l0.025,0.022l0.024,0.024l0.023,0.023l0.023,0.025l0.022,0.025l0.022,0.025l0.022,0.026l0.02,0.026l0.02,0.026l0.02,0.028l0.019,0.027l0.018,0.028l0.018,0.028l0.017,0.029l0.016,0.029l0.016,0.03l0.015,0.03l0.014,0.03l0.014,0.03l0.013,0.031l0.013,0.031l0.011,0.031l0.011,0.032l0.01,0.032l0.01,0.032l0.009,0.032l0.008,0.033l0.007,0.032l0.007,0.033l0.006,0.033l0.005,0.033l0.005,0.033l0.003,0.033l0.003,0.033l0.002,0.034l0.002,0.033l0.001,0.034l0,0.033l-0.001,0.033l-0.002,0.034l-0.002,0.033l-0.003,0.033l-0.003,0.034l-0.005,0.033l-0.005,0.033l-0.006,0.033l-0.007,0.032l-0.007,0.033l-0.008,0.032l-0.009,0.033l-0.01,0.032l-0.01,0.031l-0.011,0.032l-0.011,0.031l-0.013,0.031l-0.013,0.031l-0.014,0.031l-0.014,0.03l-0.015,0.03l-0.016,0.029l-0.016,0.029l-0.017,0.029l-0.018,0.028l-0.018,0.028l-0.019,0.028l-0.02,0.027l-0.02,0.027l-0.02,0.026l-0.022,0.026l-0.022,0.025l-0.022,0.025l-0.023,0.024l-0.023,0.024l-0.024,0.023l-0.025,0.023l-0.025,0.022l-0.026,0.021l-0.026,0.021l-0.026,0.021l-0.027,0.02l-0.027,0.019l-0.028,0.019l-0.028,0.017l-0.029,0.018l-0.029,0.017l-0.029,0.016l-0.03,0.015l-0.03,0.015l-0.03,0.014l-0.031,0.013l-0.031,0.013l-0.031,0.012l-0.031,0.011l-0.032,0.011l-0.032,0.01l-0.032,0.009l-0.032,0.008l-0.033,0.008l-0.032,0.007l-0.033,0.006l-0.033,0.006l-0.033,0.005l-0.033,0.004l-0.034,0.003l-0.033,0.003l-0.033,0.002l-0.034,0.001l-0.033,0l-1.888,0l-0.033,0l-0.033,-0.001l-0.034,-0.002l-0.033,-0.003l-0.033,-0.003l-0.034,-0.004l-0.033,-0.005l-0.033,-0.006l-0.032,-0.006l-0.033,-0.007l-0.033,-0.008l-0.032,-0.008l-0.032,-0.009l-0.032,-0.01l-0.032,-0.011l-0.031,-0.011l-0.031,-0.012l-0.031,-0.013l-0.031,-0.013l-0.03,-0.014l-0.03,-0.015l-0.03,-0.015l-0.029,-0.016l-0.029,-0.017l-0.029,-0.018l-0.028,-0.017l-0.028,-0.019l-0.027,-0.019l-0.027,-0.02l-0.026,-0.021l-0.026,-0.021l-0.026,-0.021l-0.025,-0.022l-0.024,-0.023l-0.024,-0.023l-0.024,-0.024l-0.023,-0.024l-0.022,-0.025l-0.022,-0.025l-0.021,-0.026l-0.021,-0.026l-0.02,-0.027l-0.02,-0.027l-0.019,-0.028l-0.018,-0.028l-0.018,-0.028l-0.017,-0.029l-0.016,-0.029l-0.016,-0.029l-0.015,-0.03l-0.014,-0.03l-0.014,-0.031l-0.013,-0.031l-0.012,-0.031l-0.012,-0.031l-0.011,-0.032l-0.01,-0.031l-0.01,-0.032l-0.009,-0.033l-0.008,-0.032l-0.007,-0.033l-0.007,-0.032l-0.006,-0.033l-0.005,-0.033l-0.004,-0.033l-0.004,-0.034l-0.003,-0.033l-0.002,-0.033l-0.002,-0.034l-0.001,-0.033l0,-0.033l0.001,-0.034l0.002,-0.033l0.002,-0.034l0.003,-0.033l0.004,-0.033l0.004,-0.033l0.005,-0.033l0.006,-0.033l0.007,-0.033l0.007,-0.032l0.008,-0.033l0.009,-0.032l0.01,-0.032l0.01,-0.032l0.011,-0.032l0.012,-0.031l0.012,-0.031l0.013,-0.031l0.014,-0.03l0.014,-0.03l0.015,-0.03l0.016,-0.03l0.016,-0.029l0.017,-0.029l0.018,-0.028l0.018,-0.028l0.019,-0.027l0.02,-0.028l0.02,-0.026l0.021,-0.026l0.021,-0.026l0.022,-0.025l0.022,-0.025l0.023,-0.025l0.024,-0.023l0.024,-0.024l0.024,-0.022l0.025,-0.022l0.026,-0.022l0.026,-0.021l0.026,-0.02l0.027,-0.02l0.027,-0.019l0.028,-0.019l0.028,-0.018l0.029,-0.017l0.029,-0.017l0.029,-0.016l0.03,-0.016l0.03,-0.014l0.03,-0.014l0.031,-0.014l0.031,-0.012l0.031,-0.012l0.031,-0.012l0.032,-0.01l0.032,-0.01l0.032,-0.009l0.032,-0.009l0.033,-0.008l0.033,-0.007l0.032,-0.006l0.033,-0.006l0.033,-0.004l0.034,-0.004l0.033,-0.004l0.033,-0.002l0.034,-0.002l0.033,-0.001l0.033,-0.001l1.888,0l0.033,0.001Z" style="fill:#234;"/></g></g></svg>