<?xml version="1.0" standalone="no"?>
<!DOCTYPE svg PUBLIC "-//W3C//DTD SVG 20010904//EN"
 "http://www.w3.org/TR/2001/REC-SVG-20010904/DTD/svg10.dtd">
<svg version="1.0" xmlns="http://www.w3.org/2000/svg"
 width="700.000000pt" height="700.000000pt" viewBox="0 0 700.000000 700.000000"
 preserveAspectRatio="xMidYMid meet">
<metadata>
Created by potrace 1.11, written by Peter Selinger 2001-2013
</metadata>
<g transform="translate(0.000000,700.000000) scale(0.100000,-0.100000)"
fill="#000000" stroke="none">
<path d="M3635 6346 c-11 -8 -39 -72 -69 -162 -45 -131 -54 -149 -74 -152 -15
-2 -29 4 -38 16 -14 20 -21 18 -330 -85 -263 -88 -317 -109 -326 -128 -8 -18
19 -107 156 -514 l167 -491 -671 -2020 c-368 -1112 -670 -2034 -670 -2050 0
-19 7 -33 19 -40 26 -13 526 -14 551 0 10 5 26 33 35 62 31 97 -75 88 1039 88
770 0 986 -3 999 -12 9 -7 24 -33 32 -58 9 -24 22 -55 31 -67 l14 -23 341 0
c215 0 347 4 360 10 12 7 19 21 19 39 0 16 -322 987 -716 2157 -394 1171 -716
2138 -716 2149 0 11 80 259 176 552 97 292 176 540 176 552 0 11 -10 27 -22
35 -13 7 -116 44 -230 80 -114 36 -213 69 -220 71 -8 3 -22 -1 -33 -9z m116
-3421 c316 -967 334 -1024 337 -1106 5 -106 -9 -179 -50 -260 -41 -81 -136
-178 -215 -218 -111 -56 -168 -63 -443 -59 -229 4 -249 6 -305 28 -213 83
-337 262 -337 485 0 84 4 103 70 305 39 118 184 562 323 985 138 424 259 791
267 817 9 26 17 47 18 45 1 -1 152 -461 335 -1022z"/>
<path d="M74 516 c-3 -8 -4 -23 -2 -33 3 -17 20 -18 224 -21 237 -3 254 1 239
48 -6 19 -13 20 -231 20 -186 0 -226 -2 -230 -14z"/>
<path d="M904 516 c-3 -8 -4 -23 -2 -33 3 -17 70 -18 1677 -18 1530 0 1675 1
1684 16 6 9 7 24 4 33 -6 15 -140 16 -1682 16 -1450 0 -1676 -2 -1681 -14z"/>
<path d="M4714 516 c-3 -8 -4 -23 -2 -33 3 -17 43 -18 908 -18 l905 0 0 30 0
30 -903 3 c-780 2 -903 0 -908 -12z"/>
<path d="M6800 515 c-26 -31 0 -50 66 -50 59 0 59 0 59 30 0 29 -1 30 -56 33
-42 2 -59 -1 -69 -13z"/>
</g>
</svg>
