<svg id="svg" version="1.1" width="400" height="417" xmlns="http://www.w3.org/2000/svg" xmlns:xlink="http://www.w3.org/1999/xlink" style="display: block;"><g id="svgg"><path id="path0" d="M117.059 5.617 C 117.196 9.972,121.433 16.320,124.997 17.509 C 127.951 18.495,128.588 19.251,129.095 22.369 C 129.764 26.485,131.895 31.000,133.169 31.000 C 134.232 31.000,134.215 30.696,132.975 27.433 C 130.424 20.725,133.533 19.572,141.804 24.159 C 144.937 25.896,148.400 27.809,149.500 28.409 C 150.600 29.009,152.175 29.988,153.000 30.585 C 153.825 31.182,156.075 32.246,158.000 32.950 C 159.925 33.653,163.300 35.054,165.500 36.062 C 173.863 39.896,179.573 41.068,184.693 40.003 C 187.337 39.453,190.400 38.849,191.500 38.661 C 192.600 38.473,195.138 37.982,197.141 37.569 C 200.158 36.947,201.784 37.347,206.641 39.907 C 215.842 44.757,221.665 44.232,235.500 37.306 C 245.065 32.518,254.631 29.000,258.089 29.000 C 265.267 29.000,262.149 26.548,251.022 23.443 L 246.545 22.194 243.371 25.847 L 240.198 29.500 235.349 27.645 C 227.523 24.651,224.501 24.507,221.050 26.965 C 219.372 28.159,218.000 28.681,218.000 28.125 C 218.000 24.171,227.261 22.872,233.985 25.882 C 238.872 28.070,240.826 27.772,243.270 24.466 C 245.278 21.749,241.928 19.000,236.607 19.000 C 235.236 19.000,231.051 17.930,227.307 16.622 C 211.604 11.135,208.804 10.585,195.500 10.379 C 177.805 10.105,167.582 9.232,154.000 6.835 C 136.714 3.783,116.981 3.133,117.059 5.617 M170.966 17.771 L 173.153 19.543 170.624 22.271 C 167.256 25.906,160.000 24.938,160.000 20.854 C 160.000 16.999,167.432 14.910,170.966 17.771 M230.000 32.948 C 230.000 33.885,228.810 35.742,227.356 37.076 L 224.712 39.500 226.466 36.757 C 227.644 34.916,227.999 33.133,227.547 31.333 C 226.957 28.982,227.067 28.811,228.437 29.948 C 229.297 30.661,230.000 32.011,230.000 32.948 M257.500 31.510 C 254.750 32.247,250.925 33.270,249.000 33.784 C 237.764 36.786,235.170 40.205,240.750 44.658 C 247.919 50.378,261.220 50.709,275.000 45.508 C 277.475 44.574,282.309 43.740,285.742 43.655 C 294.173 43.446,293.999 42.705,284.307 37.521 C 279.509 34.955,278.989 34.868,277.485 36.372 C 276.590 37.267,275.574 38.000,275.229 38.000 C 274.883 38.000,275.140 37.460,275.800 36.800 C 280.379 32.221,268.097 28.670,257.500 31.510 M266.681 35.250 C 270.090 37.570,271.363 39.855,268.250 38.064 C 265.249 36.337,261.454 33.046,262.438 33.022 C 262.954 33.010,264.864 34.013,266.681 35.250 M146.391 39.594 C 141.648 46.481,142.720 48.000,152.319 48.000 C 158.483 48.000,169.766 43.049,168.451 40.921 C 167.566 39.489,165.277 39.836,164.638 41.500 C 164.322 42.325,163.544 43.000,162.909 43.000 C 162.086 43.000,162.118 42.563,163.020 41.476 C 163.716 40.638,164.108 39.833,163.893 39.689 C 163.677 39.545,161.676 38.205,159.446 36.713 C 153.179 32.519,150.920 33.017,146.391 39.594 M252.068 36.904 C 249.567 40.416,249.490 41.779,251.655 44.171 C 253.437 46.140,257.492 46.631,258.500 45.000 C 258.840 44.450,259.654 44.015,260.309 44.033 C 262.181 44.086,256.985 48.000,255.044 48.000 C 253.206 48.000,250.957 45.857,249.180 42.413 C 248.107 40.331,251.196 34.062,253.318 34.017 C 253.768 34.008,253.206 35.307,252.068 36.904 M137.500 37.690 C 129.986 39.467,121.005 43.572,120.985 45.239 C 120.974 46.098,120.653 46.021,119.977 45.000 C 118.898 43.368,115.069 47.069,115.022 49.790 C 115.010 50.499,114.083 52.877,112.962 55.074 C 110.435 60.028,110.997 61.015,116.309 60.944 C 124.029 60.841,139.000 51.289,139.000 46.467 C 139.000 45.795,139.652 44.704,140.448 44.043 C 142.796 42.094,146.095 35.982,144.716 36.136 C 144.047 36.210,140.800 36.910,137.500 37.690 M259.500 38.000 C 259.840 38.550,259.218 39.000,258.118 39.000 C 255.371 39.000,254.580 40.657,256.729 41.908 C 258.421 42.893,258.421 42.941,256.719 42.970 C 254.101 43.014,253.316 39.973,255.529 38.355 C 257.738 36.740,258.670 36.657,259.500 38.000 M189.500 46.000 C 185.100 49.789,181.092 52.915,180.594 52.945 C 180.096 52.975,178.214 54.125,176.411 55.500 C 174.608 56.875,172.679 58.000,172.124 58.000 C 171.569 58.000,169.626 58.864,167.807 59.921 C 165.988 60.977,160.225 63.251,155.000 64.974 C 149.775 66.697,142.800 69.469,139.500 71.133 L 133.500 74.159 137.987 73.452 C 140.455 73.063,144.280 72.101,146.487 71.315 C 148.694 70.529,155.900 69.427,162.500 68.868 C 169.100 68.308,178.325 66.812,183.000 65.543 C 195.662 62.106,205.818 60.766,209.993 61.982 C 211.915 62.542,215.102 63.000,217.077 63.000 C 219.051 63.000,220.982 63.315,221.367 63.701 C 222.535 64.868,233.299 67.933,234.224 67.361 C 234.699 67.068,235.630 67.257,236.294 67.781 C 237.615 68.825,247.895 72.571,249.500 72.594 C 250.050 72.602,252.975 73.817,256.000 75.294 C 259.025 76.772,262.140 77.985,262.921 77.990 C 263.703 77.996,265.053 78.598,265.921 79.328 C 266.790 80.058,269.773 81.571,272.551 82.690 C 275.329 83.809,279.566 86.024,281.965 87.612 C 284.365 89.200,287.777 91.400,289.548 92.500 C 297.107 97.195,301.000 100.089,301.000 101.013 C 301.000 101.556,301.586 102.000,302.301 102.000 C 303.017 102.000,307.523 105.938,312.315 110.750 C 324.389 122.876,325.000 123.557,325.000 124.887 C 325.000 125.534,325.694 126.329,326.543 126.655 C 327.391 126.980,328.933 128.909,329.970 130.940 C 331.006 132.972,332.562 135.221,333.427 135.939 C 334.292 136.657,335.000 138.104,335.000 139.154 C 335.000 140.204,335.675 141.322,336.500 141.638 C 337.325 141.955,338.000 142.687,338.000 143.266 C 338.000 143.844,339.526 147.508,341.391 151.409 C 345.881 160.801,349.554 171.125,351.029 178.500 C 351.689 181.800,352.643 185.286,353.148 186.247 C 353.654 187.208,354.298 191.033,354.580 194.747 C 354.862 198.461,355.413 205.775,355.805 211.000 C 356.198 216.225,356.225 222.975,355.866 226.000 C 355.508 229.025,354.945 234.650,354.616 238.500 C 353.859 247.347,350.851 259.236,345.886 273.000 C 343.658 279.177,337.087 292.828,336.027 293.484 C 335.462 293.833,335.000 294.913,335.000 295.885 C 335.000 296.856,333.875 298.708,332.500 300.000 C 331.125 301.292,330.000 302.867,330.000 303.500 C 330.000 304.133,328.875 305.708,327.500 307.000 C 326.125 308.292,325.000 309.765,325.000 310.273 C 325.000 313.181,297.596 340.496,292.956 342.212 C 291.880 342.610,291.000 343.411,291.000 343.993 C 291.000 344.574,289.844 345.489,288.432 346.026 C 287.019 346.563,284.432 348.058,282.682 349.348 C 276.308 354.047,250.268 365.642,244.000 366.572 C 239.640 367.219,230.700 369.873,230.089 370.702 C 229.765 371.141,226.350 371.559,222.500 371.631 C 202.834 372.001,198.974 372.234,198.449 373.082 C 198.112 373.628,197.189 373.644,196.189 373.120 C 195.260 372.633,190.138 371.964,184.806 371.634 C 179.475 371.304,173.033 370.568,170.491 369.998 C 167.950 369.428,165.449 369.222,164.935 369.540 C 164.421 369.858,164.000 369.713,164.000 369.217 C 164.000 368.254,157.392 366.000,154.570 366.000 C 153.636 366.000,150.412 364.875,147.406 363.500 C 144.400 362.125,141.506 361.000,140.975 361.000 C 139.312 361.000,125.258 354.227,124.553 353.085 C 124.184 352.488,123.228 352.000,122.430 352.000 C 121.631 352.000,118.242 350.087,114.900 347.750 C 111.557 345.413,108.077 343.050,107.166 342.500 C 103.979 340.576,93.447 331.547,87.395 325.550 C 78.828 317.061,61.000 293.006,61.000 289.936 C 61.000 289.399,59.950 287.282,58.666 285.230 C 57.382 283.179,56.074 280.600,55.759 279.500 C 55.443 278.400,54.276 275.250,53.165 272.500 C 50.573 266.086,46.000 250.890,46.000 248.691 C 46.000 247.761,45.438 246.993,44.750 246.985 C 43.862 246.974,43.826 246.757,44.626 246.235 C 45.454 245.695,45.371 243.245,44.316 237.000 C 39.003 205.571,50.898 152.649,68.725 128.406 C 69.976 126.704,71.000 124.809,71.000 124.195 C 71.000 123.580,71.803 122.273,72.785 121.289 C 73.767 120.305,76.580 116.818,79.035 113.540 C 81.491 110.263,85.425 105.557,87.777 103.083 C 90.130 100.609,91.837 98.018,91.571 97.325 C 91.305 96.631,91.518 95.798,92.044 95.473 C 92.570 95.148,93.000 95.413,93.000 96.062 C 93.000 97.046,100.742 91.118,105.890 86.192 C 106.655 85.461,108.455 84.122,109.890 83.217 C 111.326 82.313,114.300 80.131,116.500 78.371 C 118.700 76.610,120.950 75.083,121.500 74.977 C 123.003 74.689,130.289 70.936,132.000 69.568 C 133.395 68.452,150.100 61.773,153.237 61.076 C 153.642 60.986,156.117 60.262,158.737 59.467 C 161.357 58.672,164.306 58.017,165.290 58.011 C 166.853 58.001,172.582 54.629,174.000 52.885 C 174.275 52.546,175.429 51.980,176.564 51.627 C 177.698 51.273,180.311 49.442,182.368 47.557 C 184.426 45.672,186.647 43.911,187.305 43.644 C 187.962 43.377,184.667 43.122,179.982 43.079 C 172.677 43.011,170.969 43.329,167.982 45.309 C 161.336 49.717,151.746 51.202,145.035 48.863 C 141.870 47.759,141.652 47.866,137.768 52.410 C 131.597 59.629,124.974 62.979,116.849 62.991 C 110.006 63.000,108.443 64.113,105.163 71.310 C 103.209 75.596,92.918 81.891,86.324 82.835 C 81.818 83.479,81.543 83.703,80.546 87.538 C 77.997 97.347,69.299 106.067,60.789 107.344 C 59.088 107.599,58.431 108.434,58.232 110.594 C 57.726 116.087,55.712 122.506,53.224 126.559 C 50.934 130.289,48.653 132.214,42.228 135.839 C 40.535 136.795,40.073 137.655,40.615 138.839 C 43.416 144.957,38.991 158.910,32.292 165.085 L 27.657 169.357 29.329 174.063 C 32.316 182.473,30.029 194.636,24.496 199.766 C 21.421 202.618,21.421 202.783,24.488 208.148 C 28.143 214.542,28.150 227.844,24.500 233.215 C 21.441 237.716,21.425 237.231,24.750 240.789 C 31.657 248.179,34.669 263.875,30.212 269.245 C 29.123 270.557,29.383 271.159,31.899 273.148 C 39.462 279.127,42.370 284.702,42.818 294.078 L 43.233 302.748 47.676 305.557 C 55.777 310.678,60.267 317.178,60.928 324.745 L 61.500 331.287 65.500 332.468 C 75.992 335.566,84.135 344.044,85.203 352.981 C 85.470 355.207,86.168 355.571,92.000 356.526 C 100.720 357.953,107.643 362.513,111.902 369.633 L 115.112 375.000 121.313 375.000 C 131.822 375.000,139.804 378.711,144.041 385.566 L 146.073 388.854 150.640 387.297 C 159.162 384.394,170.589 387.007,177.540 393.450 L 180.212 395.926 185.073 393.463 C 192.102 389.901,202.816 389.962,209.837 393.605 L 214.858 396.210 218.324 393.566 C 226.015 387.700,234.521 386.035,242.577 388.820 L 247.653 390.575 252.265 386.038 C 258.679 379.727,266.950 376.524,274.708 377.346 L 280.500 377.959 284.000 372.807 C 289.316 364.982,295.769 361.000,303.134 361.000 C 308.526 361.000,309.134 360.778,310.001 358.497 C 313.919 348.193,316.740 344.578,324.500 339.915 C 328.817 337.321,328.846 337.311,332.364 337.125 C 334.381 337.018,334.819 336.339,335.344 332.506 C 336.578 323.503,342.513 314.980,350.159 311.234 L 354.783 308.968 355.170 301.734 C 355.650 292.745,358.523 286.658,364.736 281.465 L 369.226 277.712 368.553 271.762 C 367.427 261.814,368.656 255.984,373.122 250.083 L 377.047 244.897 375.523 239.767 C 373.023 231.346,373.479 220.047,376.500 215.595 C 379.747 210.811,379.676 207.752,376.250 204.839 C 374.738 203.553,373.406 201.375,373.292 200.000 C 373.177 198.625,372.792 195.013,372.436 191.974 C 371.989 188.157,372.283 184.787,373.385 181.075 L 374.981 175.703 371.075 171.466 C 364.568 164.406,363.518 161.640,363.509 151.530 C 363.501 143.137,363.350 142.484,361.168 141.397 C 353.667 137.657,347.000 126.597,347.000 117.895 C 347.000 113.427,346.780 112.984,344.250 112.361 C 335.461 110.197,326.705 100.651,325.136 91.524 C 324.497 87.802,324.188 87.502,320.331 86.844 C 311.757 85.380,302.199 78.718,300.468 73.000 C 299.258 69.002,296.816 65.857,295.357 66.417 C 289.688 68.592,275.206 62.417,270.450 55.797 C 267.105 51.142,266.635 50.842,263.678 51.478 C 254.497 53.455,242.745 50.427,237.136 44.641 C 233.925 41.327,233.817 41.297,229.955 42.628 C 220.448 45.903,205.117 44.653,202.700 40.405 C 201.118 37.625,197.390 39.205,189.500 46.000 M158.000 43.276 C 158.000 43.713,157.100 43.589,156.000 43.000 C 154.900 42.411,154.000 41.492,154.000 40.956 C 154.000 40.417,154.892 40.540,156.000 41.232 C 157.100 41.919,158.000 42.839,158.000 43.276 M133.000 48.000 C 133.000 48.890,132.288 50.491,131.418 51.559 C 129.859 53.472,129.847 53.471,130.563 51.500 C 130.962 50.400,131.289 48.825,131.289 48.000 C 131.289 47.175,130.962 45.600,130.563 44.500 C 129.847 42.529,129.859 42.528,131.418 44.441 C 132.288 45.509,133.000 47.110,133.000 48.000 M281.000 46.628 C 277.425 47.427,273.488 48.296,272.250 48.559 C 267.814 49.504,272.729 57.217,280.347 61.265 C 284.361 63.398,318.017 64.341,319.949 62.374 C 321.530 60.765,312.425 54.963,309.206 55.529 C 305.532 56.174,302.000 55.374,302.000 53.897 C 302.000 53.320,302.838 53.378,304.078 54.042 C 307.513 55.880,309.708 54.440,307.386 51.871 C 301.723 45.604,293.183 43.907,281.000 46.628 M108.500 48.237 C 106.850 48.830,104.912 50.145,104.193 51.158 C 103.475 52.171,102.325 53.000,101.639 53.000 C 100.953 53.000,98.263 54.350,95.661 56.000 C 93.059 57.650,90.343 59.000,89.626 59.000 C 87.872 59.000,86.134 62.985,83.968 71.980 C 81.830 80.852,81.907 81.070,86.745 79.826 C 88.810 79.295,91.487 78.620,92.694 78.325 C 98.288 76.957,110.000 61.549,110.000 55.556 C 110.000 54.763,110.944 52.514,112.099 50.557 C 114.390 46.674,113.836 46.318,108.500 48.237 M128.500 49.000 C 128.160 49.550,127.234 50.000,126.441 50.000 C 125.648 50.000,125.000 49.550,125.000 49.000 C 125.000 48.450,125.927 48.000,127.059 48.000 C 128.191 48.000,128.840 48.450,128.500 49.000 M121.985 52.250 C 121.993 52.663,121.550 53.000,121.000 53.000 C 120.450 53.000,120.007 51.987,120.015 50.750 C 120.030 48.603,121.940 50.058,121.985 52.250 M284.571 50.571 C 279.242 55.900,285.931 62.699,291.951 58.072 C 294.043 56.464,294.208 55.955,293.078 54.594 C 291.506 52.700,287.621 52.421,288.292 54.250 C 288.544 54.938,289.256 55.388,289.875 55.250 C 290.494 55.113,291.000 55.450,291.000 56.000 C 291.000 57.246,288.974 57.269,287.040 56.046 C 285.468 55.051,288.106 51.000,290.326 51.000 C 294.373 51.000,296.036 56.367,292.847 59.133 C 289.041 62.434,281.000 59.882,281.000 55.373 C 281.000 52.963,283.321 49.000,284.732 49.000 C 285.878 49.000,285.848 49.295,284.571 50.571 M299.595 51.146 C 301.487 53.276,301.485 53.283,299.306 52.140 C 296.875 50.865,295.378 49.000,296.786 49.000 C 297.283 49.000,298.547 49.965,299.595 51.146 M128.423 54.125 C 128.125 54.606,127.009 55.000,125.941 55.000 C 124.873 55.000,124.000 54.606,124.000 54.125 C 124.000 53.644,125.117 53.250,126.482 53.250 C 127.847 53.250,128.720 53.644,128.423 54.125 M100.000 60.861 C 100.000 61.335,98.939 61.520,97.641 61.272 C 96.030 60.964,95.069 61.378,94.609 62.578 C 93.694 64.961,95.749 67.012,97.026 64.992 C 97.819 63.738,97.972 63.791,97.985 65.320 C 97.996 66.636,97.380 67.051,95.760 66.820 C 93.189 66.453,92.270 63.585,94.040 61.452 C 95.332 59.895,100.000 59.432,100.000 60.861 M89.800 64.600 C 89.800 67.063,89.476 67.876,88.773 67.173 C 87.871 66.271,88.422 61.000,89.419 61.000 C 89.629 61.000,89.800 62.620,89.800 64.600 M78.250 65.863 C 76.463 67.394,75.000 69.454,75.000 70.441 C 75.000 72.107,68.994 78.327,68.175 77.509 C 67.974 77.307,69.314 75.798,71.154 74.154 C 76.842 69.071,73.430 69.460,67.043 74.622 C 63.297 77.649,61.008 80.259,61.009 81.500 C 61.010 83.229,61.343 83.094,63.469 80.500 C 66.395 76.931,66.893 78.595,64.000 82.273 C 59.388 88.136,64.430 96.249,70.625 92.933 C 73.121 91.597,74.070 85.779,72.000 84.500 C 71.450 84.160,71.015 83.346,71.033 82.691 C 71.094 80.521,75.000 86.178,75.000 88.436 C 75.000 96.964,61.672 96.298,60.792 87.726 C 60.313 83.057,58.000 93.267,58.000 100.049 C 58.000 105.572,58.208 105.682,64.230 103.337 C 72.507 100.115,79.198 89.843,80.539 78.303 C 81.069 73.744,82.458 67.576,83.662 64.437 C 84.554 62.114,81.775 62.846,78.250 65.863 M101.134 66.654 C 100.193 68.272,100.057 68.136,100.030 65.550 C 100.008 63.399,100.299 62.899,101.104 63.704 C 101.895 64.495,101.903 65.330,101.134 66.654 M303.250 65.640 C 298.976 66.588,301.780 73.453,308.973 79.650 C 311.904 82.175,325.263 85.605,336.000 86.588 C 340.125 86.966,344.512 87.653,345.750 88.113 C 348.887 89.281,348.613 88.675,343.671 83.518 C 340.601 80.313,338.494 78.966,336.421 78.884 C 334.734 78.817,334.239 78.575,335.250 78.311 C 337.804 77.643,337.476 76.898,332.610 72.319 C 325.997 66.096,313.746 63.309,303.250 65.640 M313.661 70.823 C 309.617 75.290,314.737 81.815,319.941 78.826 C 321.634 77.854,322.419 76.620,322.262 75.178 C 322.131 73.980,322.468 73.000,323.012 73.000 C 324.930 73.000,323.993 77.891,321.777 79.443 C 315.432 83.888,307.504 75.521,312.661 69.823 C 313.574 68.813,314.546 68.213,314.821 68.488 C 315.096 68.763,314.574 69.813,313.661 70.823 M328.969 72.372 C 329.013 73.613,324.699 70.596,324.173 69.018 C 323.900 68.201,324.716 68.422,326.336 69.604 C 327.767 70.647,328.951 71.892,328.969 72.372 M99.541 70.933 C 98.712 72.275,92.996 72.300,91.000 70.970 C 89.942 70.266,90.715 70.155,93.624 70.594 C 96.318 71.000,98.001 70.808,98.475 70.041 C 98.874 69.395,99.425 69.092,99.700 69.367 C 99.975 69.642,99.904 70.347,99.541 70.933 M319.061 75.462 C 319.578 75.143,320.000 75.392,320.000 76.014 C 320.000 77.974,316.538 76.575,316.225 74.489 C 315.949 72.652,316.010 72.635,317.025 74.271 C 317.629 75.245,318.545 75.781,319.061 75.462 M52.240 88.995 C 48.591 92.644,48.246 93.416,48.712 96.890 C 49.017 99.161,48.778 101.019,48.129 101.420 C 47.377 101.885,47.223 101.137,47.640 99.050 C 48.739 93.555,45.120 96.092,39.485 104.765 C 35.825 110.399,36.539 134.079,40.367 133.967 C 43.253 133.882,49.733 128.007,52.500 122.966 C 55.093 118.242,58.179 88.584,56.428 85.225 C 56.349 85.075,54.464 86.771,52.240 88.995 M70.251 89.149 C 69.607 89.793,68.365 89.939,67.317 89.495 C 65.710 88.814,65.789 88.644,68.000 88.025 C 70.964 87.196,71.791 87.609,70.251 89.149 M327.467 88.054 C 327.229 88.439,327.751 91.171,328.627 94.127 C 331.234 102.923,339.094 109.133,351.686 112.347 C 355.088 113.215,360.601 115.226,363.936 116.814 C 367.713 118.613,370.000 119.250,370.000 118.503 C 370.000 116.808,353.561 93.893,351.529 92.756 C 348.544 91.086,348.568 92.935,351.573 96.222 C 354.895 99.856,351.996 97.945,347.792 93.731 C 343.797 89.725,328.990 85.590,327.467 88.054 M340.027 94.974 C 336.377 98.385,336.401 100.468,340.125 103.246 C 343.594 105.833,347.458 104.177,346.738 100.411 C 346.434 98.818,346.739 98.000,347.639 98.000 C 349.857 98.000,349.225 102.729,346.777 104.443 C 340.007 109.186,332.914 101.193,338.073 94.635 C 339.212 93.186,340.835 92.000,341.678 92.000 C 342.686 92.000,342.120 93.020,340.027 94.974 M342.675 98.658 C 342.313 99.020,342.576 99.993,343.259 100.821 C 344.275 102.052,344.228 102.235,343.000 101.830 C 341.148 101.218,340.386 98.000,342.093 98.000 C 342.775 98.000,343.037 98.296,342.675 98.658 M357.936 106.500 C 357.936 107.050,357.276 106.626,356.468 105.559 C 355.661 104.491,355.000 103.168,355.000 102.618 C 355.000 102.068,355.661 102.491,356.468 103.559 C 357.276 104.626,357.936 105.950,357.936 106.500 M44.494 105.006 C 43.496 106.110,42.462 106.795,42.197 106.530 C 41.525 105.858,44.019 103.000,45.277 103.000 C 45.845 103.000,45.493 103.903,44.494 105.006 M40.360 111.950 C 40.035 113.573,40.266 116.323,40.872 118.062 C 41.801 120.726,41.756 121.042,40.585 120.071 C 38.579 118.405,37.845 114.537,38.974 111.569 C 40.293 108.099,41.087 108.317,40.360 111.950 M50.000 111.059 C 50.000 111.641,49.546 111.837,48.991 111.494 C 46.695 110.075,43.809 112.101,44.455 114.678 C 44.858 116.281,44.710 116.939,44.040 116.525 C 42.635 115.656,42.724 112.676,44.200 111.200 C 45.683 109.717,50.000 109.613,50.000 111.059 M30.176 118.787 C 27.550 123.302,27.078 124.864,27.926 126.236 C 29.256 128.387,29.279 131.027,27.986 133.000 C 27.281 134.076,27.172 133.615,27.602 131.371 C 29.086 123.624,23.566 128.848,20.969 137.648 C 18.906 144.636,24.131 166.000,27.903 166.000 C 34.428 166.000,40.228 146.255,37.004 135.014 C 36.456 133.104,35.715 127.370,35.356 122.271 C 34.592 111.402,34.507 111.344,30.176 118.787 M350.000 120.329 C 350.000 129.541,355.777 136.242,370.003 143.533 C 374.126 145.646,379.424 148.929,381.775 150.829 C 386.721 154.824,387.659 154.593,385.648 149.874 C 384.858 148.018,383.723 145.262,383.127 143.750 C 382.490 142.134,381.281 141.000,380.196 141.000 C 379.180 141.000,377.370 139.958,376.174 138.686 C 372.985 135.291,373.520 134.166,376.819 137.327 C 379.734 140.119,381.480 140.021,380.088 137.142 C 379.652 136.239,378.446 133.746,377.410 131.602 C 374.727 126.051,370.083 121.248,369.036 122.941 C 368.105 124.448,366.000 123.516,366.000 121.598 C 366.000 120.231,361.786 117.936,355.929 116.112 C 350.247 114.343,350.000 114.518,350.000 120.329 M362.500 122.386 C 357.575 124.533,356.107 128.421,359.042 131.545 C 362.973 135.729,369.177 132.716,366.257 128.040 C 365.249 126.426,365.277 126.169,366.416 126.606 C 369.966 127.969,367.150 136.000,363.122 136.000 C 361.137 136.000,356.000 130.747,356.000 128.716 C 356.000 125.954,360.810 120.989,363.437 121.039 C 365.072 121.070,364.877 121.350,362.500 122.386 M372.612 127.531 C 374.994 131.165,373.779 131.544,371.149 127.988 C 369.934 126.344,369.393 125.000,369.947 125.000 C 370.501 125.000,371.700 126.139,372.612 127.531 M362.644 129.494 C 362.723 130.865,362.385 131.738,361.894 131.434 C 360.814 130.767,360.691 127.000,361.750 127.001 C 362.163 127.001,362.565 128.123,362.644 129.494 M23.985 140.530 C 22.642 143.164,22.000 143.780,22.000 142.434 C 22.000 140.452,24.859 135.526,25.587 136.254 C 25.797 136.464,25.077 138.388,23.985 140.530 M35.011 144.250 C 37.513 148.354,37.510 148.400,34.455 151.455 C 30.237 155.672,21.905 153.132,22.063 147.677 C 22.124 145.586,22.165 145.595,23.090 147.909 C 25.033 152.769,29.802 154.394,33.171 151.345 C 35.381 149.345,35.502 147.045,33.532 144.441 C 32.724 143.374,32.049 142.162,32.032 141.750 C 31.965 140.168,33.106 141.126,35.011 144.250 M365.638 147.222 C 362.898 157.447,368.241 167.363,382.500 178.520 C 385.250 180.672,387.725 182.722,388.000 183.077 C 390.294 186.035,395.190 191.140,395.462 190.855 C 395.877 190.419,394.084 179.072,393.272 177.000 C 392.949 176.175,392.782 174.907,392.902 174.183 C 393.341 171.515,388.855 160.213,386.466 157.968 C 383.505 155.186,383.392 155.725,385.892 160.719 C 386.933 162.799,388.060 166.714,388.397 169.421 C 389.129 175.313,388.095 174.868,386.945 168.796 C 386.498 166.433,385.344 162.700,384.382 160.500 C 383.420 158.300,382.721 155.995,382.831 155.377 C 383.439 151.938,366.524 143.915,365.638 147.222 M15.146 152.818 C 12.591 159.826,12.598 159.740,14.500 161.643 C 16.553 163.696,16.371 166.920,14.000 170.500 C 11.563 174.180,11.424 173.276,13.695 168.514 C 15.212 165.333,15.230 164.801,13.868 163.439 C 10.835 160.407,8.243 176.299,10.661 183.100 C 13.136 190.064,18.858 200.016,20.345 199.945 C 27.435 199.605,30.171 177.985,24.514 167.000 C 23.240 164.525,21.093 158.997,19.745 154.716 L 17.293 146.931 15.146 152.818 M379.000 155.000 C 380.165 155.753,379.872 155.973,377.691 155.985 C 376.070 155.994,375.143 155.577,375.500 155.000 C 376.267 153.758,377.079 153.758,379.000 155.000 M372.046 158.914 C 371.224 160.450,371.224 161.550,372.046 163.086 C 372.660 164.233,372.917 165.416,372.618 165.715 C 371.181 167.153,369.707 160.939,370.877 158.371 C 371.536 156.925,372.319 155.986,372.618 156.285 C 372.917 156.584,372.660 157.767,372.046 158.914 M380.250 160.392 C 382.173 161.852,382.567 164.531,381.001 165.499 C 380.427 165.854,380.109 165.153,380.251 163.849 C 380.421 162.307,379.894 161.456,378.604 161.190 C 377.202 160.899,376.868 161.215,377.323 162.399 C 378.000 164.165,376.499 164.617,375.473 162.956 C 373.877 160.374,377.597 158.378,380.250 160.392 M379.000 167.000 C 379.000 167.550,378.127 168.000,377.059 168.000 C 375.991 168.000,374.840 167.550,374.500 167.000 C 374.149 166.433,374.990 166.000,376.441 166.000 C 377.848 166.000,379.000 166.450,379.000 167.000 M26.000 181.700 C 26.000 184.458,22.499 187.915,19.654 187.967 C 17.493 188.006,12.000 184.956,12.000 183.716 C 12.000 183.247,13.307 183.794,14.904 184.932 C 20.845 189.162,27.655 184.094,23.468 178.559 C 21.264 175.645,21.766 174.139,24.033 176.861 C 25.115 178.159,26.000 180.337,26.000 181.700 M18.052 181.417 C 18.579 181.965,19.191 181.665,19.572 180.673 C 19.923 179.759,20.612 179.260,21.105 179.565 C 22.627 180.505,22.098 181.834,19.927 182.523 C 17.337 183.345,15.028 180.532,15.868 177.579 C 16.413 175.662,16.487 175.695,16.814 178.000 C 17.010 179.375,17.566 180.913,18.052 181.417 M375.614 181.401 C 371.711 189.625,375.198 201.313,384.612 211.567 C 387.026 214.196,389.000 216.649,389.000 217.018 C 389.000 217.388,389.838 218.448,390.861 219.375 C 391.885 220.301,393.529 222.846,394.513 225.030 C 397.088 230.740,398.000 229.956,398.000 222.035 C 398.000 216.094,397.706 214.913,396.000 214.000 C 394.900 213.411,394.000 212.405,394.000 211.765 C 394.000 210.898,394.307 210.907,395.200 211.800 C 397.706 214.306,398.281 212.931,397.635 205.980 C 396.821 197.229,394.907 193.613,387.207 186.291 C 376.927 176.513,377.766 176.867,375.614 181.401 M7.000 191.941 C 7.000 195.759,7.450 199.160,8.000 199.500 C 9.310 200.310,9.260 206.083,7.926 208.000 C 7.163 209.095,7.052 208.381,7.512 205.353 C 7.897 202.812,7.726 200.949,7.071 200.544 C 6.337 200.090,6.025 202.813,6.079 209.191 C 6.122 214.311,6.384 217.940,6.661 217.255 C 6.995 216.427,8.167 217.013,10.159 219.005 C 13.543 222.390,15.857 222.721,19.785 220.386 L 22.500 218.772 19.694 221.386 C 16.183 224.657,14.933 224.656,11.034 221.376 C 4.194 215.620,6.689 220.603,15.722 230.739 C 20.339 235.919,20.319 235.918,22.837 231.088 C 27.451 222.236,25.655 212.803,16.919 200.000 C 14.480 196.425,11.632 191.588,10.590 189.250 C 7.919 183.256,7.000 183.945,7.000 191.941 M391.961 193.189 C 394.348 195.750,394.713 197.837,392.445 195.955 C 390.780 194.573,388.603 191.000,389.426 191.000 C 389.699 191.000,390.840 191.985,391.961 193.189 M386.382 200.474 C 388.376 199.930,388.395 199.981,386.704 201.342 C 384.699 202.956,381.677 202.521,379.884 200.360 C 378.880 199.150,379.120 199.095,381.483 199.994 C 383.013 200.575,385.217 200.791,386.382 200.474 M20.500 212.000 C 22.708 214.440,21.808 214.576,18.367 212.321 C 16.307 210.971,15.430 210.875,13.902 211.829 C 12.856 212.482,12.000 212.638,12.000 212.175 C 12.000 209.340,17.982 209.217,20.500 212.000 M380.171 214.293 C 373.590 222.224,374.795 233.361,384.035 250.000 C 386.631 254.675,389.055 260.188,389.423 262.250 C 390.238 266.827,391.443 267.035,392.902 262.851 C 394.717 257.646,394.290 251.229,392.000 249.268 C 390.900 248.326,390.000 247.035,390.000 246.400 C 390.000 244.590,393.059 237.726,393.617 238.284 C 393.892 238.559,393.445 240.393,392.623 242.360 C 391.252 245.641,391.278 246.122,392.939 248.173 C 395.658 251.531,397.946 238.419,395.590 232.985 C 394.758 231.068,394.061 230.055,394.039 230.732 C 394.018 231.410,392.386 230.398,390.414 228.482 C 386.245 224.433,385.203 224.266,381.635 227.073 C 380.186 228.212,379.000 228.688,379.000 228.129 C 379.000 224.154,386.722 223.010,390.000 226.500 C 392.366 229.019,394.000 229.702,394.000 228.173 C 394.000 226.952,383.685 213.727,382.400 213.299 C 381.795 213.098,380.792 213.545,380.171 214.293 M14.510 217.016 C 14.856 217.575,15.670 217.734,16.319 217.370 C 17.177 216.888,17.204 217.029,16.417 217.886 C 15.269 219.136,12.000 218.401,12.000 216.893 C 12.000 215.677,13.735 215.762,14.510 217.016 M6.631 229.500 C 6.980 232.800,7.829 236.175,8.518 237.000 C 9.207 237.825,9.985 241.200,10.247 244.500 C 10.508 247.800,11.086 251.361,11.531 252.414 C 12.104 253.769,11.998 254.117,11.170 253.605 C 4.796 249.666,16.777 263.187,23.652 267.691 C 28.507 270.872,31.131 262.739,28.429 252.890 C 26.635 246.355,25.487 244.777,11.035 229.000 L 5.997 223.500 6.631 229.500 M387.418 229.607 C 389.922 230.568,389.257 231.772,386.512 231.247 C 385.143 230.985,384.270 230.373,384.571 229.886 C 385.220 228.835,385.368 228.820,387.418 229.607 M387.130 235.936 C 389.290 234.784,389.378 234.820,388.128 236.336 C 385.950 238.976,379.000 237.131,379.000 233.913 C 379.000 233.378,380.296 233.898,381.880 235.069 C 384.368 236.909,385.083 237.027,387.130 235.936 M7.000 240.941 C 7.000 242.623,7.450 244.000,8.000 244.000 C 8.550 244.000,9.000 242.902,9.000 241.559 C 9.000 240.216,8.550 238.840,8.000 238.500 C 7.417 238.139,7.000 239.156,7.000 240.941 M23.313 247.805 C 26.644 251.281,26.700 253.391,23.545 256.545 C 19.962 260.129,18.681 259.553,22.099 255.894 C 25.498 252.256,25.555 251.931,23.250 249.334 C 19.747 245.386,13.409 246.870,16.035 251.023 C 17.470 253.292,17.173 254.388,15.500 253.000 C 13.593 251.417,13.606 250.007,15.557 247.223 C 17.645 244.241,20.073 244.423,23.313 247.805 M376.765 249.250 C 370.918 253.768,368.710 265.642,371.837 275.746 C 376.632 291.240,378.002 296.350,378.031 298.855 C 378.061 301.363,378.192 301.292,380.550 297.500 C 383.790 292.292,384.562 289.129,383.146 286.863 C 381.742 284.613,381.640 279.341,382.985 278.509 C 383.593 278.134,383.744 279.031,383.380 280.851 C 382.299 286.254,384.511 288.067,386.552 283.451 C 389.855 275.979,389.657 267.341,385.988 258.905 C 381.480 248.540,379.868 246.852,376.765 249.250 M21.000 251.559 C 21.000 253.785,19.445 253.262,19.273 250.978 C 19.190 249.866,19.544 249.218,20.061 249.537 C 20.577 249.857,21.000 250.766,21.000 251.559 M16.000 257.000 C 17.375 258.076,18.184 258.966,17.797 258.978 C 16.377 259.023,12.000 256.653,12.000 255.839 C 12.000 254.511,13.300 254.888,16.000 257.000 M384.242 261.750 C 387.904 265.600,388.371 268.750,385.985 273.500 C 384.821 275.817,384.235 276.448,384.592 275.000 C 386.448 267.472,386.291 266.137,383.180 263.026 C 380.546 260.392,379.800 260.125,377.509 260.997 C 373.860 262.384,373.149 262.202,375.441 260.468 C 378.363 258.258,381.331 258.690,384.242 261.750 M12.006 264.715 C 12.010 266.247,12.685 268.789,13.506 270.364 C 14.328 271.940,15.000 274.051,15.000 275.055 C 15.000 277.152,16.954 278.792,17.089 276.809 C 17.209 275.062,20.072 284.802,20.400 288.068 C 20.726 291.325,21.757 293.000,23.437 293.000 C 24.162 293.000,25.343 293.708,26.061 294.573 C 27.105 295.832,39.213 302.000,40.638 302.000 C 40.837 302.000,41.000 299.248,41.000 295.885 C 41.000 285.476,36.564 278.909,23.798 270.422 C 20.113 267.971,16.825 265.526,16.493 264.988 C 14.700 262.087,12.000 261.923,12.006 264.715 M381.954 265.445 C 385.158 269.305,379.386 275.225,375.536 272.030 C 374.664 271.307,374.177 270.490,374.452 270.215 C 374.727 269.940,375.609 270.260,376.412 270.927 C 378.174 272.389,382.000 270.744,382.000 268.524 C 382.000 266.445,380.120 265.656,378.456 267.036 C 376.870 268.352,376.673 268.015,377.607 265.582 C 378.365 263.607,380.377 263.544,381.954 265.445 M33.364 281.636 C 39.234 287.507,32.767 295.143,24.565 292.025 C 23.154 291.488,22.000 290.623,22.000 290.101 C 22.000 289.580,23.427 289.865,25.172 290.736 C 31.545 293.915,37.213 286.521,31.920 281.931 C 27.923 278.464,22.664 282.480,25.975 286.470 C 27.641 288.477,26.588 288.445,24.571 286.429 C 22.513 284.370,22.589 283.411,25.000 281.000 C 27.706 278.294,30.212 278.485,33.364 281.636 M367.277 282.427 C 359.853 286.537,355.898 298.102,357.858 309.969 C 358.486 313.773,359.000 320.324,359.000 324.526 C 359.000 333.310,359.878 333.751,364.303 327.194 C 366.691 323.654,366.972 322.557,366.202 319.769 C 365.286 316.451,366.424 312.000,368.188 312.000 C 368.673 312.000,368.605 312.870,368.035 313.934 C 366.834 316.178,366.654 320.010,367.750 319.979 C 368.866 319.947,374.000 312.399,374.000 310.790 C 374.000 310.026,374.537 308.863,375.192 308.208 C 377.386 306.014,372.672 280.711,370.141 281.098 C 369.789 281.152,368.500 281.750,367.277 282.427 M30.500 285.500 C 30.500 286.508,30.050 287.483,29.500 287.667 C 28.950 287.850,28.500 286.875,28.500 285.500 C 28.500 284.125,28.950 283.150,29.500 283.333 C 30.050 283.517,30.500 284.492,30.500 285.500 M362.661 295.823 C 359.768 299.019,363.407 306.993,366.394 304.006 C 367.656 302.744,369.000 302.706,369.000 303.933 C 369.000 304.446,368.062 305.163,366.915 305.527 C 364.180 306.395,360.000 302.542,360.000 299.154 C 360.000 296.707,362.835 292.502,363.821 293.488 C 364.096 293.763,363.574 294.813,362.661 295.823 M372.953 296.805 L 374.176 299.500 371.588 297.076 C 368.781 294.446,368.186 292.750,370.365 293.586 C 371.115 293.874,372.280 295.323,372.953 296.805 M24.487 299.980 C 25.869 302.169,27.000 304.581,27.000 305.341 C 27.000 306.100,28.125 308.379,29.500 310.405 C 30.875 312.431,32.000 314.674,32.000 315.389 C 32.000 316.984,35.202 320.000,36.896 320.000 C 37.642 320.000,37.903 320.729,37.553 321.833 C 36.855 324.032,39.026 325.175,50.426 328.611 C 60.609 331.680,60.300 331.744,59.468 326.750 C 57.852 317.045,52.808 310.681,43.000 305.971 C 39.425 304.254,33.511 301.309,29.857 299.425 C 21.542 295.138,21.437 295.149,24.487 299.980 M365.588 301.745 C 364.496 302.837,363.747 301.100,364.531 299.293 C 365.275 297.580,365.329 297.581,365.743 299.328 C 365.982 300.334,365.912 301.421,365.588 301.745 M372.318 308.440 C 369.450 312.379,368.706 311.411,371.220 307.011 C 372.565 304.658,373.630 303.621,373.818 304.483 C 373.993 305.286,373.318 307.067,372.318 308.440 M36.219 317.750 C 36.935 318.623,36.891 319.000,36.071 319.000 C 34.848 319.000,31.940 313.011,32.082 310.782 C 32.126 310.077,32.845 311.075,33.678 313.000 C 34.512 314.925,35.655 317.063,36.219 317.750 M46.500 312.000 C 46.861 312.583,45.844 313.000,44.059 313.000 C 39.766 313.000,39.491 317.661,43.750 318.243 C 46.033 318.555,46.201 318.756,44.737 319.422 C 42.425 320.474,40.000 318.429,40.000 315.427 C 40.000 312.133,44.964 309.515,46.500 312.000 M348.765 314.750 C 340.445 321.120,338.752 325.660,335.990 349.000 C 335.372 354.225,334.623 359.400,334.326 360.500 C 333.709 362.782,342.212 354.875,350.143 345.790 C 356.081 338.989,357.727 332.255,356.543 319.617 C 355.719 310.824,354.714 310.195,348.765 314.750 M48.000 323.000 C 48.000 323.550,46.087 323.936,43.750 323.858 L 39.500 323.716 43.500 323.000 C 45.700 322.606,47.612 322.220,47.750 322.142 C 47.888 322.064,48.000 322.450,48.000 323.000 M351.050 323.526 C 352.672 324.365,354.000 325.490,354.000 326.026 C 354.000 327.414,353.090 327.232,351.357 325.500 C 348.675 322.818,345.061 323.626,343.531 327.250 C 341.870 331.185,343.648 333.957,347.905 334.068 L 350.500 334.135 348.234 335.227 C 342.420 338.030,338.877 328.964,344.077 324.589 C 347.701 321.539,347.320 321.597,351.050 323.526 M41.000 329.059 C 41.000 330.953,47.289 338.000,48.980 338.000 C 50.909 338.000,56.659 343.675,55.701 344.633 C 55.341 344.992,54.774 344.574,54.440 343.703 C 53.772 341.964,49.000 338.482,49.000 339.734 C 49.000 342.327,58.325 351.519,62.693 353.232 C 68.795 355.625,83.000 356.868,83.000 355.009 C 83.000 344.357,70.982 334.812,54.158 332.103 C 50.863 331.572,46.802 330.432,45.134 329.569 C 41.552 327.717,41.000 327.649,41.000 329.059 M347.524 329.619 C 346.633 330.510,345.656 330.989,345.352 330.686 C 344.462 329.795,345.985 328.000,347.630 328.000 C 348.936 328.000,348.922 328.221,347.524 329.619 M352.826 337.945 C 349.768 341.817,348.250 341.863,351.000 338.000 C 352.175 336.350,353.590 335.000,354.144 335.000 C 354.699 335.000,354.105 336.325,352.826 337.945 M71.927 341.635 C 74.522 344.933,74.524 346.176,71.944 349.139 C 70.009 351.360,69.950 351.371,70.944 349.316 C 71.525 348.114,72.000 345.967,72.000 344.544 C 72.000 339.088,62.749 338.772,61.713 344.193 C 61.315 346.277,61.259 346.238,61.136 343.800 C 60.876 338.646,68.391 337.139,71.927 341.635 M329.500 340.720 C 320.427 343.337,313.862 352.020,310.636 365.671 C 309.878 368.877,308.076 374.388,306.631 377.918 C 303.554 385.433,303.719 385.960,308.171 382.856 C 314.414 378.505,316.000 376.694,316.000 373.915 C 316.000 371.286,321.519 365.185,322.767 366.434 C 323.325 366.991,318.985 370.912,317.750 370.967 C 316.858 371.006,316.723 376.000,317.614 376.000 C 319.720 376.000,329.668 365.714,330.813 362.354 C 333.454 354.602,335.095 346.642,334.801 343.005 L 334.500 339.278 329.500 340.720 M68.554 344.087 C 68.923 344.685,68.785 345.615,68.247 346.153 C 67.608 346.792,67.080 346.414,66.728 345.066 C 66.160 342.895,67.405 342.228,68.554 344.087 M60.184 349.343 C 61.271 351.375,61.227 351.395,58.961 349.890 C 56.158 348.029,55.084 345.711,57.444 346.617 C 58.330 346.957,59.563 348.184,60.184 349.343 M328.139 350.989 L 330.500 352.979 327.159 351.371 C 321.339 348.569,316.631 352.707,319.427 358.166 C 320.257 359.786,321.369 360.427,323.062 360.263 C 325.083 360.066,325.215 360.195,323.836 361.014 C 321.554 362.370,319.031 361.211,317.923 358.299 C 315.344 351.513,322.600 346.322,328.139 350.989 M325.937 357.941 C 325.897 358.917,325.537 358.664,324.975 357.267 C 324.331 355.665,323.571 355.223,322.288 355.704 C 320.686 356.305,320.650 356.190,321.947 354.597 C 323.586 352.584,326.070 354.667,325.937 357.941 M65.000 357.014 C 65.000 359.223,71.937 365.000,74.589 365.000 C 76.792 365.000,77.040 365.247,76.045 366.445 C 75.056 367.638,75.929 368.688,81.033 372.445 C 87.300 377.059,91.809 378.818,86.750 374.676 C 85.237 373.438,84.000 372.035,84.000 371.557 C 84.000 371.080,84.787 371.359,85.750 372.177 C 90.241 375.995,95.149 377.281,102.765 376.637 C 112.136 375.845,112.388 375.657,110.039 371.196 C 105.443 362.467,98.317 359.148,81.500 357.905 C 74.900 357.417,68.487 356.781,67.250 356.490 C 66.007 356.198,65.000 356.433,65.000 357.014 M328.004 363.496 C 326.714 364.869,325.438 365.772,325.169 365.502 C 324.505 364.838,328.052 361.000,329.329 361.000 C 329.890 361.000,329.293 362.123,328.004 363.496 M98.557 363.418 C 99.624 364.198,100.181 365.152,99.796 365.537 C 99.411 365.923,98.367 365.510,97.476 364.619 C 93.768 360.911,87.985 364.227,89.552 369.163 C 89.996 370.562,89.849 371.025,89.107 370.566 C 87.468 369.553,87.764 365.918,89.655 363.829 C 91.630 361.646,95.867 361.451,98.557 363.418 M301.000 362.682 C 292.456 365.664,286.953 370.866,282.149 380.500 C 276.109 392.611,275.887 393.005,273.250 396.323 C 270.321 400.007,270.411 400.974,273.625 400.391 C 278.406 399.525,283.893 395.695,284.207 393.005 C 284.489 390.595,290.464 386.287,293.809 386.081 C 296.309 385.927,294.078 387.654,290.069 388.977 C 286.374 390.197,283.908 393.242,285.404 394.738 C 286.001 395.334,287.391 394.718,294.445 390.730 C 299.036 388.135,304.361 379.764,306.538 371.718 C 307.315 368.848,308.239 365.488,308.592 364.250 C 309.247 361.953,305.376 361.154,301.000 362.682 M100.000 371.974 C 100.000 372.510,98.537 373.656,96.750 374.520 L 93.500 376.092 96.500 373.551 C 99.890 370.680,100.000 370.630,100.000 371.974 M290.596 376.404 C 290.499 380.850,289.000 381.900,289.000 377.523 C 289.000 375.358,289.883 372.000,290.453 372.000 C 290.584 372.000,290.649 373.982,290.596 376.404 M301.689 378.750 C 301.438 379.712,301.232 378.925,301.232 377.000 C 301.232 375.075,301.438 374.288,301.689 375.250 C 301.941 376.212,301.941 377.788,301.689 378.750 M296.598 377.578 C 296.686 379.294,296.651 379.304,296.269 377.674 C 296.006 376.552,295.273 376.065,294.368 376.412 C 293.501 376.745,293.160 376.550,293.540 375.936 C 294.518 374.352,296.487 375.410,296.598 377.578 M108.000 378.488 C 104.425 379.201,99.274 379.833,96.553 379.892 L 91.606 380.000 95.832 383.108 C 98.156 384.817,101.169 386.279,102.528 386.358 C 103.961 386.440,105.025 387.130,105.062 388.000 C 105.190 391.030,118.311 396.330,123.687 395.524 C 129.395 394.668,144.012 390.074,143.971 389.150 C 143.597 380.878,124.459 375.206,108.000 378.488 M264.505 380.737 C 260.774 381.680,254.165 386.975,250.327 392.096 C 248.222 394.904,245.488 398.301,244.250 399.646 C 243.012 400.991,242.000 402.331,242.000 402.624 C 242.000 402.917,240.122 404.961,237.828 407.166 L 233.655 411.174 238.578 410.533 C 246.477 409.503,248.000 409.040,248.000 407.668 C 248.000 405.239,253.410 401.227,257.250 400.810 C 262.317 400.258,262.053 401.595,256.961 402.278 C 252.489 402.878,250.000 404.470,250.000 406.729 C 250.000 407.741,250.557 407.993,251.750 407.520 C 252.713 407.138,255.692 406.302,258.372 405.663 C 265.554 403.949,280.964 384.988,278.464 380.942 C 277.867 379.976,268.081 379.832,264.505 380.737 M299.500 384.000 C 298.505 385.100,297.240 386.000,296.690 386.000 C 296.140 386.000,296.505 385.100,297.500 384.000 C 298.495 382.900,299.760 382.000,300.310 382.000 C 300.860 382.000,300.495 382.900,299.500 384.000 M130.707 388.238 C 130.468 389.482,130.263 388.700,130.252 386.500 C 130.241 384.300,130.437 383.282,130.687 384.238 C 130.937 385.194,130.946 386.994,130.707 388.238 M125.643 385.513 C 125.963 386.345,125.668 387.695,124.989 388.513 C 123.616 390.168,120.000 390.544,120.000 389.031 C 120.000 388.499,120.563 388.269,121.250 388.521 C 123.880 389.485,125.688 387.105,123.559 385.481 C 121.833 384.164,121.809 384.000,123.340 384.000 C 124.288 384.000,125.324 384.681,125.643 385.513 M113.818 389.281 C 115.851 391.731,122.891 393.549,125.071 392.188 C 127.796 390.486,129.755 390.718,127.441 392.468 C 123.686 395.309,111.238 391.668,109.535 387.231 C 108.931 385.657,112.049 387.149,113.818 389.281 M259.968 386.750 C 259.951 387.163,259.276 388.374,258.468 389.441 C 256.971 391.421,256.513 390.433,257.607 387.582 C 258.218 385.990,260.027 385.353,259.968 386.750 M269.645 391.199 C 270.127 394.170,269.732 395.259,267.138 398.113 C 265.444 399.976,264.045 400.938,264.029 400.250 C 264.013 399.563,264.438 399.000,264.974 399.000 C 266.417 399.000,269.247 393.024,268.700 391.133 C 268.440 390.235,267.885 388.600,267.466 387.500 C 266.892 385.990,266.996 385.766,267.889 386.586 C 268.540 387.184,269.330 389.259,269.645 391.199 M149.000 390.403 C 146.525 391.044,142.812 392.318,140.749 393.234 C 138.685 394.150,134.431 395.374,131.295 395.953 C 123.895 397.321,122.839 398.485,127.658 399.962 C 129.771 400.609,132.457 401.605,133.627 402.173 C 135.259 402.966,136.425 402.790,138.627 401.420 C 140.228 400.424,140.947 400.245,140.250 401.017 C 138.026 403.478,138.911 404.809,143.250 405.528 C 145.588 405.915,148.321 406.664,149.325 407.191 C 151.685 408.432,159.000 407.204,159.000 405.567 C 159.000 404.203,162.144 401.000,163.484 401.000 C 163.938 401.000,163.495 401.900,162.500 403.000 C 159.614 406.189,163.121 405.638,169.878 401.841 C 178.403 397.052,178.307 397.208,174.696 394.038 C 169.174 389.190,159.155 387.773,149.000 390.403 M228.230 390.919 C 224.384 391.903,219.420 395.255,212.500 401.540 C 209.750 404.038,205.137 407.662,202.250 409.594 C 199.363 411.526,197.000 413.533,197.000 414.053 C 197.000 415.774,209.159 415.166,211.171 413.345 C 212.480 412.160,213.000 412.058,213.000 412.983 C 213.000 415.163,225.441 413.378,229.910 410.557 C 236.133 406.628,247.192 393.763,245.662 392.233 C 244.082 390.654,232.639 389.791,228.230 390.919 M163.000 392.500 C 163.785 393.446,163.852 394.000,163.181 394.000 C 162.597 394.000,161.840 393.550,161.500 393.000 C 159.372 389.557,152.441 393.636,153.468 397.728 C 153.861 399.293,153.707 399.937,153.040 399.525 C 151.533 398.593,151.764 395.782,153.557 393.223 C 155.398 390.594,161.059 390.161,163.000 392.500 M263.947 395.356 C 262.984 396.244,262.851 396.089,263.353 394.668 C 263.709 393.661,264.052 392.311,264.116 391.668 C 264.180 391.026,264.447 391.335,264.710 392.356 C 264.973 393.377,264.629 394.727,263.947 395.356 M187.970 394.837 C 185.478 395.752,180.528 398.316,176.970 400.536 C 173.411 402.756,168.250 405.402,165.500 406.417 C 158.238 409.098,158.245 409.515,165.573 410.865 C 170.616 411.795,172.527 411.808,173.596 410.920 C 174.694 410.009,175.000 410.079,175.000 411.242 C 175.000 412.718,180.621 414.000,187.093 414.000 C 190.652 414.000,195.000 412.055,195.000 410.462 C 195.000 409.793,195.759 408.627,196.687 407.872 C 198.165 406.671,198.293 406.718,197.719 408.250 C 197.358 409.212,197.326 410.000,197.647 410.000 C 198.745 410.000,208.000 402.832,208.000 401.982 C 208.000 401.516,208.926 400.841,210.057 400.482 C 215.892 398.630,206.410 393.087,197.500 393.143 C 194.750 393.160,190.461 393.922,187.970 394.837 M229.049 395.017 C 227.151 395.464,225.013 396.629,224.299 397.606 C 223.149 399.178,223.000 399.194,223.000 397.741 C 223.000 395.581,225.771 394.043,229.500 394.133 L 232.500 394.205 229.049 395.017 M197.128 396.664 C 198.376 398.177,198.290 398.216,196.183 397.093 C 194.276 396.076,193.442 396.136,191.468 397.429 C 188.101 399.635,187.028 399.327,189.861 396.967 C 192.747 394.562,195.306 394.455,197.128 396.664 M235.393 398.431 C 235.994 400.822,234.420 406.753,233.444 405.777 C 233.169 405.502,233.367 404.165,233.884 402.805 C 234.443 401.335,234.460 399.759,233.927 398.917 C 232.777 397.099,232.763 396.000,233.892 396.000 C 234.382 396.000,235.058 397.094,235.393 398.431 M200.000 402.500 C 200.000 403.810,199.595 405.133,199.099 405.439 C 198.604 405.745,198.242 404.450,198.295 402.560 C 198.403 398.759,200.000 398.703,200.000 402.500 M230.487 399.979 C 230.820 400.518,230.591 401.895,229.979 403.039 C 228.683 405.461,223.959 405.434,223.164 403.000 C 222.746 401.718,222.915 401.698,224.325 402.862 C 225.232 403.611,226.655 403.963,227.487 403.643 C 229.316 402.941,229.487 400.363,227.750 399.662 C 226.980 399.352,227.150 399.128,228.191 399.079 C 229.121 399.036,230.154 399.441,230.487 399.979 M148.000 402.500 C 148.825 403.158,150.352 404.000,151.393 404.372 C 152.434 404.743,153.017 405.316,152.688 405.645 C 152.115 406.218,143.000 401.368,143.000 400.489 C 143.000 399.828,146.327 401.166,148.000 402.500 M195.000 403.024 C 195.000 405.416,191.922 407.196,189.946 405.946 C 188.821 405.234,189.000 405.027,190.750 405.015 C 192.493 405.003,193.000 404.424,193.000 402.441 C 193.000 400.990,193.433 400.149,194.000 400.500 C 194.550 400.840,195.000 401.976,195.000 403.024 M230.427 408.479 C 229.119 409.468,226.250 409.896,221.500 409.811 L 214.500 409.685 221.000 409.084 C 224.575 408.753,228.396 407.957,229.492 407.316 C 232.152 405.759,232.859 406.639,230.427 408.479 M182.500 409.000 C 182.869 409.596,181.657 410.000,179.500 410.000 C 177.343 410.000,176.131 409.596,176.500 409.000 C 176.840 408.450,178.190 408.000,179.500 408.000 C 180.810 408.000,182.160 408.450,182.500 409.000 " stroke="none" fill="#0061c3" fill-rule="evenodd"></path></g></svg>